<?xml version="1.0" encoding="utf-8"?>
<!-- Generator: Adobe Illustrator 25.1.0, SVG Export Plug-In . SVG Version: 6.00 Build 0)  -->
<svg version="1.1" id="Capa_1" xmlns="http://www.w3.org/2000/svg" xmlns:xlink="http://www.w3.org/1999/xlink" x="0px" y="0px"
	 viewBox="0 0 24 24" style="enable-background:new 0 0 24 24;" xml:space="preserve">
<style type="text/css">
	.st0{fill:none;stroke:#233941;stroke-width:0.89761;stroke-miterlimit:10;}
</style>
<g>
	<path class="st0" d="M19.68966,5.1606c1.1005,0.21132,2.04972-0.73631,1.84085-1.8383
		c-0.11583-0.61109-0.61584-1.11087-1.22703-1.22621c-1.09975-0.20754-2.04543,0.73699-1.83829,1.83594
		C18.58035,4.54299,19.0791,5.04336,19.68966,5.1606z"/>
	<path class="st0" d="M23.36324,7.25918c0,0,0.088-1.74402-1.75229-1.74402h-3.19039c-1.77474,0-1.76174,1.61055-1.76292,1.74402
		l0.00059,4.94918c0.02894,0.26636,0.29175,0.5711,0.61953,0.5711c0.32542,0,0.56461-0.29471,0.59355-0.56166l0.55398,7.88089
		c0.04134,0.4016,0.32424,0.55102,0.67328,0.55102c0.34786,0,0.63016-0.14942,0.6721-0.55102h0.49137
		c0.04252,0.4016,0.32542,0.55102,0.6715,0.55102c0.34963,0,0.63194-0.14942,0.67446-0.55102l0.57051-7.8868
		c0,0.26754,0.25927,0.56874,0.58587,0.56874c0.32601,0,0.58646-0.30593,0.6154-0.57229L23.36324,7.25918z"/>
	<path class="st0" d="M11.77694,5.1606c1.1005,0.21132,2.04972-0.73631,1.84085-1.8383
		c-0.11583-0.61109-0.61584-1.11087-1.22703-1.22621c-1.09975-0.20754-2.04543,0.73699-1.83829,1.83594
		C10.66763,4.54299,11.16637,5.04336,11.77694,5.1606z"/>
	<path class="st0" d="M15.45051,7.25918c0,0,0.088-1.74402-1.75229-1.74402h-3.19039c-1.77474,0-1.76174,1.61055-1.76292,1.74402
		l0.00059,4.94918c0.02894,0.26636,0.29175,0.5711,0.61953,0.5711c0.32542,0,0.56461-0.29471,0.59355-0.56166l0.55398,7.88089
		c0.04134,0.4016,0.32424,0.55102,0.67328,0.55102c0.34786,0,0.63016-0.14942,0.6721-0.55102h0.49137
		c0.04252,0.4016,0.32542,0.55102,0.6715,0.55102c0.34963,0,0.63194-0.14942,0.67446-0.55102l0.57051-7.8868
		c0,0.26754,0.25927,0.56874,0.58587,0.56874c0.32601,0,0.58646-0.30593,0.6154-0.57229L15.45051,7.25918z"/>
	<path class="st0" d="M3.65226,5.1606c1.1005,0.21132,2.04972-0.73631,1.84085-1.8383
		C5.37728,2.71121,4.87727,2.21143,4.26608,2.09609C3.16633,1.88855,2.22065,2.83308,2.42779,3.93203
		C2.54295,4.54299,3.0417,5.04336,3.65226,5.1606z"/>
	<path class="st0" d="M7.32583,7.25918c0,0,0.088-1.74402-1.75229-1.74402H2.38315c-1.77474,0-1.76174,1.61055-1.76292,1.74402
		l0.00059,4.94918c0.02894,0.26636,0.29175,0.5711,0.61953,0.5711c0.32542,0,0.56461-0.29471,0.59355-0.56166l0.55398,7.88089
		c0.04134,0.4016,0.32424,0.55102,0.67328,0.55102c0.34786,0,0.63016-0.14942,0.6721-0.55102h0.49137
		c0.04252,0.4016,0.32542,0.55102,0.67151,0.55102c0.34963,0,0.63194-0.14942,0.67446-0.55102l0.57051-7.8868
		c0,0.26754,0.25927,0.56874,0.58587,0.56874c0.32601,0,0.58646-0.30593,0.6154-0.57229L7.32583,7.25918z"/>
</g>
</svg>
