<?xml version="1.0" encoding="utf-8"?>
<!-- Generator: Adobe Illustrator 25.1.0, SVG Export Plug-In . SVG Version: 6.00 Build 0)  -->
<svg version="1.1" id="Layer_1" xmlns="http://www.w3.org/2000/svg" xmlns:xlink="http://www.w3.org/1999/xlink" x="0px" y="0px"
	 viewBox="0 0 24 24" style="enable-background:new 0 0 24 24;" xml:space="preserve">
<style type="text/css">
	.st0{fill:#1A3740;}
	.st1{fill:none;stroke:#132A31;stroke-width:0.4397;stroke-miterlimit:10;}
	.st2{fill:#132A31;}
</style>
<path class="st0" d="M8.175,3.333h-7.1c-0.1,0-0.3,0.1-0.3,0.3v16.7c0,0.1,0.1,0.3,0.3,0.3h7.1c0.1,0,0.3-0.1,0.3-0.3v-16.7
	C8.47501,3.433,8.37501,3.333,8.175,3.333z M7.97501,19.933h-6.5v-16.1h6.5V19.933z"/>
<path class="st0" d="M22.75201,3.333h-7.1c-0.1,0-0.3,0.1-0.3,0.3v16.7c0,0.1,0.1,0.3,0.3,0.3h7.1c0.1,0,0.3-0.1,0.3-0.3v-16.7
	C23.05201,3.433,22.85201,3.333,22.75201,3.333z M22.452,19.933h-6.5v-16.1h6.5V19.933z"/>
<path class="st0" d="M9.196,20.1385h-9c-0.1,0-0.2,0.1-0.2,0.3s0.1,0.3,0.2,0.3h9c0.1,0,0.2-0.1,0.2-0.3
	S9.296,20.1385,9.196,20.1385z"/>
<path class="st0" d="M23.77299,20.1385h-9c-0.1,0-0.2,0.1-0.2,0.3s0.1,0.3,0.2,0.3h9c0.1,0,0.2-0.1,0.2-0.3
	S23.77299,20.1385,23.77299,20.1385z"/>
<path class="st0" d="M3.354,11.592h-1.1c-0.2,0-0.3,0.1-0.3,0.3s0.1,0.3,0.3,0.3h1.1c0.2,0,0.3-0.1,0.3-0.3
	S3.454,11.592,3.354,11.592z"/>
<path class="st0" d="M17.83099,11.592h-1.1c-0.2,0-0.3,0.1-0.3,0.3s0.1,0.3,0.3,0.3h1.1c0.2,0,0.3-0.1,0.3-0.3
	S18.031,11.592,17.83099,11.592z"/>
<path class="st0" d="M7.154,4.512h-4.9c-0.1,0-0.3,0.1-0.3,0.3v5.9c0,0.1,0.1,0.3,0.3,0.3h4.9c0.1,0,0.3-0.1,0.3-0.3v-5.9
	C7.354,4.612,7.25401,4.512,7.154,4.512z M6.854,10.312h-4.3v-5.2h4.3V10.312z"/>
<path class="st0" d="M21.631,4.512h-4.9c-0.1,0-0.3,0.1-0.3,0.3v5.9c0,0.1,0.1,0.3,0.3,0.3h4.9c0.1,0,0.3-0.1,0.3-0.3v-5.9
	C21.931,4.612,21.831,4.512,21.631,4.512z M21.431,10.312h-4.3v-5.2h4.3V10.312z"/>
<path class="st0" d="M7.154,12.971h-4.9c-0.1,0-0.3,0.1-0.3,0.3v5.9c0,0.1,0.1,0.3,0.3,0.3h4.9c0.1,0,0.3-0.1,0.3-0.3v-5.9
	C7.354,13.071,7.25401,12.971,7.154,12.971z M6.854,18.771h-4.3v-5.3h4.3V18.771z"/>
<path class="st0" d="M21.631,12.971h-4.9c-0.1,0-0.3,0.1-0.3,0.3v5.9c0,0.1,0.1,0.3,0.3,0.3h4.9c0.1,0,0.3-0.1,0.3-0.3v-5.9
	C21.931,13.071,21.831,12.971,21.631,12.971z M21.431,18.771h-4.3v-5.3h4.3V18.771z"/>
<path class="st1" d="M13.1,11.4h-2.4"/>
<path class="st2" d="M8.7,11.45l2.4,1v-2.1L8.7,11.45z"/>
<path class="st2" d="M15,11.35l-2.4-1v2.1L15,11.35z"/>
</svg>
