<?xml version="1.0" encoding="utf-8"?>
<!-- Generator: Adobe Illustrator 25.1.0, SVG Export Plug-In . SVG Version: 6.00 Build 0)  -->
<svg version="1.1" id="Capa_1" xmlns="http://www.w3.org/2000/svg" xmlns:xlink="http://www.w3.org/1999/xlink" x="0px" y="0px"
	 viewBox="0 0 24 24" style="enable-background:new 0 0 24 24;" xml:space="preserve">
<style type="text/css">
	.st0{fill:none;stroke:#1A3740;stroke-width:0.5472;stroke-miterlimit:10;}
	.st1{fill:none;stroke:#1A3740;stroke-width:0.8208;stroke-miterlimit:10;}
	.st2{fill:none;stroke:#1A3740;stroke-width:0.4378;stroke-miterlimit:10;}
	.st3{fill:#FFFFFF;}
</style>
<g>
	<g>
		<path class="st0" d="M2.5,10.2L2.9,18c0,0.4-0.2,0.7-0.5,0.7H1.6c-0.3,0-0.5-0.3-0.5-0.7l0.4-7.8c-0.6-0.3-1-1.1-1-2.1
			c0-1.2,0.7-2.2,1.5-2.2s1.5,1,1.5,2.2C3.6,9.1,3.1,9.9,2.5,10.2z"/>
		<path class="st1" d="M11.8,18.7c-3.7,0-6.7-3-6.7-6.7s3-6.7,6.7-6.7s6.7,3,6.7,6.7S15.5,18.7,11.8,18.7z"/>
		<path class="st2" d="M23.4,10.5c0,0.2-0.2,0.5-0.5,0.5h-0.5l0.4,6.6c0,0.3-0.2,0.6-0.5,0.6h-0.7c-0.3,0-0.5-0.3-0.5-0.6l0.4-6.6
			H21c-0.3,0-0.5-0.3-0.5-0.5L20,9.2V9.1V6.4c0-0.2,0.2-0.5,0.5-0.5c0.2,0,0.5,0.2,0.5,0.5v2.3v0.5c0,0.1,0.1,0.2,0.2,0.2
			s0.2-0.1,0.2-0.2V8.7V6.4c0-0.2,0.2-0.5,0.5-0.5c0.2,0,0.5,0.2,0.5,0.5v2.3v0.5c0,0.1,0.1,0.2,0.2,0.2s0.2-0.1,0.2-0.2V8.7V6.4
			c0-0.2,0.2-0.5,0.5-0.5c0.2,0,0.5,0.2,0.5,0.5v2.7l0,0L23.4,10.5z"/>
		<path class="st1" d="M11.8,8.2C9.7,8.2,8,9.9,8,12s1.7,3.8,3.8,3.8s3.8-1.7,3.8-3.8S13.9,8.2,11.8,8.2z"/>
		<path class="st3" d="M11.8,15c-1.6,0-2.9-1.3-2.9-2.9s1.3-2.9,2.9-2.9s2.9,1.3,2.9,2.9C14.8,13.6,13.4,15,11.8,15z"/>
	</g>
</g>
</svg>
