<?xml version="1.0" encoding="utf-8"?>
<!-- Generator: Adobe Illustrator 25.1.0, SVG Export Plug-In . SVG Version: 6.00 Build 0)  -->
<svg version="1.1" id="Layer_1" xmlns="http://www.w3.org/2000/svg" xmlns:xlink="http://www.w3.org/1999/xlink" x="0px" y="0px"
	 viewBox="0 0 24 24" style="enable-background:new 0 0 24 24;" xml:space="preserve">
<style type="text/css">
	.st0{fill:#233941;}
</style>
<path class="st0" d="M20.91722,9.71298V3.54963c0-0.84777-0.6936-1.54137-1.54137-1.54137
	c-0.00114,0-0.00204,0.00065-0.00319,0.00065c-0.00115,0-0.00204-0.00065-0.00319-0.00065H4.62402
	c-0.84777,0-1.54137,0.6936-1.54137,1.54137v6.16335C1.34319,9.96457,0,11.44901,0,13.25751v5.13784
	c0,0.60902,0.36504,1.12791,0.88106,1.37787c0.09382,0.09946,0.22452,0.16342,0.37125,0.16342H2.0551V21.478
	c0,0.28251,0.23123,0.51373,0.51382,0.51373h5.13776c0.28897,0,0.51373-0.22476,0.51373-0.51373v-1.54137h7.55896V21.478
	c0,0.28251,0.23123,0.51373,0.51382,0.51373h5.13776c0.28259,0,0.51382-0.22476,0.51382-0.51373v-1.54137h0.51373
	c0.07116,0,0.13888-0.01456,0.20072-0.04049c0.68043-0.09283,1.20537-0.61393,1.29959-1.29787
	c0.02634-0.06192,0.04106-0.13038,0.04106-0.20293v-5.13784C23.99987,11.44909,22.6566,9.96473,20.91722,9.71298z M4.62402,3.03581
	h14.75182c0.28259,0,0.51382,0.23123,0.51382,0.51382v6.11149h-3.3075V8.11975c0-0.84769-0.6936-2.07302-1.54129-2.07302H8.87548
	c-0.00115,0-0.00204,0.00065-0.00319,0.00065S8.87025,6.04674,8.8691,6.04674c-0.84777,0-1.54137,1.22532-1.54137,2.07302v1.54137
	H4.11021V3.54963C4.11021,3.26704,4.34143,3.03581,4.62402,3.03581z M8.35529,9.66112V8.11975
	c0-0.28259,0.23123-1.04546,0.51382-1.04546c0.00115,0,0.00204-0.00065,0.00319-0.00065s0.00204,0.00065,0.00319,0.00065h6.16539
	c0.28251,0,0.51373,0.76287,0.51373,1.04546v1.54137H8.35529z M3.59647,10.68867H20.4034c1.41287,0,2.56892,1.14959,2.56892,2.56884
	v3.08265H1.02755v-3.08265C1.02755,11.83826,2.17714,10.68867,3.59647,10.68867z M7.19286,20.96419H3.08265v-1.02755h4.11021
	V20.96419z M20.91722,20.96419h-4.11029v-1.02755h4.11029V20.96419z M22.4585,18.90908H1.54137
	c-0.28259,0-0.51382-0.23123-0.51382-0.51373v-1.02763h21.94477v1.02763C22.97232,18.67786,22.74109,18.90908,22.4585,18.90908z"/>
</svg>
