<?xml version="1.0" encoding="utf-8"?>
<!-- Generator: Adobe Illustrator 25.1.0, SVG Export Plug-In . SVG Version: 6.00 Build 0)  -->
<svg version="1.1" id="Capa_1" xmlns="http://www.w3.org/2000/svg" xmlns:xlink="http://www.w3.org/1999/xlink" x="0px" y="0px"
	 viewBox="0 0 24 24" style="enable-background:new 0 0 24 24;" xml:space="preserve">
<style type="text/css">
	.st0{fill:#1A3740;}
	.st1{fill:none;stroke:#1A3740;stroke-width:1.2632;stroke-miterlimit:10;}
</style>
<g>
	<path class="st0" d="M10,11.2c-0.5,2.9-2.1,3-2.9,5.4c-0.6,2,0,3.5,1.4,5c-0.5-2.3,1.8-3.5,1.9-5.7c1,1.3,2.2,2.9,1.7,4.7
		c1.4-1.4,1-4.7,0.3-6.3c2.8,1.2,1,6.3,3.2,7c-0.3-1.1,1.5-2.3,1.1-5.1c-0.3-1.9-2.5-5.4-4.6-7.4C12.4,11.5,10.6,15.6,10,11.2z"/>
	<polyline class="st1" points="0.8,21.6 0.8,5.1 11.9,2.7 23.2,5.1 23.2,21.4 	"/>
	<polyline class="st1" points="3.6,21.6 3.6,7.7 12,6 20.6,7.7 20.6,21.4 	"/>
</g>
</svg>
