<?xml version="1.0" encoding="utf-8"?>
<!-- Generator: Adobe Illustrator 25.1.0, SVG Export Plug-In . SVG Version: 6.00 Build 0)  -->
<svg version="1.1" id="Layer_1" xmlns="http://www.w3.org/2000/svg" xmlns:xlink="http://www.w3.org/1999/xlink" x="0px" y="0px"
	 viewBox="0 0 24 24" style="enable-background:new 0 0 24 24;" xml:space="preserve">
<style type="text/css">
	.st0{fill:#1A3740;}
</style>
<g id="Generic_View" transform="translate(0 -108.496)">
	<g id="Group_25" transform="translate(0 108.496)">
		<g id="Group_24" transform="translate(0 0)">
			<path id="Path_62" class="st0" d="M23.7,11.6c-1-1.2-2.1-2.3-3.4-3.2c-1.1-0.9-2.4-1.6-3.7-2.2c-1.4-0.6-2.9-1-4.4-1
				c-0.1,0-0.1,0-0.2,0s-0.1,0-0.2,0c-1.5,0-3,0.4-4.4,1C6.1,6.7,4.8,7.5,3.7,8.4c-1.2,0.9-2.4,2-3.4,3.2L0,12l0.4,0.4
				c1,1.2,2.1,2.3,3.4,3.2c1.1,0.9,2.4,1.6,3.7,2.2c1.4,0.6,2.9,1,4.4,1c0.1,0,0.1,0,0.2,0s0.1,0,0.2,0c1.5,0,3-0.4,4.4-1
				c1.3-0.6,2.5-1.3,3.7-2.2s2.4-2,3.4-3.2L24,12L23.7,11.6z M6.1,15.6c-0.5-0.3-1-0.7-1.5-1c-1-0.8-1.9-1.6-2.8-2.6
				c0.9-0.9,1.8-1.8,2.8-2.6c0.5-0.4,1-0.7,1.5-1C4.7,10.6,4.7,13.4,6.1,15.6z M12.2,17.5c-0.1,0-0.1,0-0.2,0c-0.1,0-0.1,0-0.2,0
				c-3-0.1-5.4-2.6-5.3-5.7c0.1-2.9,2.4-5.3,5.3-5.3c0.1,0,0.1,0,0.2,0c0.1,0,0.1,0,0.2,0c3,0.1,5.4,2.6,5.3,5.7
				C17.4,15.1,15.1,17.4,12.2,17.5z M19.4,14.6c-0.5,0.4-1,0.7-1.5,1c1.4-2.2,1.4-5,0-7.2c0.5,0.3,1,0.7,1.5,1
				c1,0.8,1.9,1.6,2.8,2.6C21.3,13,20.4,13.8,19.4,14.6L19.4,14.6z"/>
		</g>
	</g>
	<circle id="Ellipse_1" class="st0" cx="12" cy="120.5" r="1.7"/>
</g>
</svg>
