<?xml version="1.0" encoding="utf-8"?>
<!-- Generator: Adobe Illustrator 25.1.0, SVG Export Plug-In . SVG Version: 6.00 Build 0)  -->
<svg version="1.1" id="Layer_1" xmlns="http://www.w3.org/2000/svg" xmlns:xlink="http://www.w3.org/1999/xlink" x="0px" y="0px"
	 viewBox="0 0 24 24" style="enable-background:new 0 0 24 24;" xml:space="preserve">
<style type="text/css">
	.st0{fill:#233941;}
</style>
<g>
	<path class="st0" d="M14.69176,13.29361v-1.78072c0-1.65616-1.31258-3.00329-2.92582-3.00329h-5.6738H5.92798H4.79846
		c-1.61346,0-2.92604,1.34712-2.92604,3.00329v1.78072c-0.84822,0.03401-1.52821,0.75269-1.52821,1.6316v7.46895
		c0,0.19666,0.15539,0.35598,0.34706,0.35598h1.11366v0.29295c0,0.49398,0.39158,0.89599,0.87279,0.89599h2.29866
		c0.48121,0,0.87264-0.402,0.87264-0.89599v-0.29295h4.86616v0.29295c0,0.49398,0.39165,0.89599,0.87286,0.89599h2.29866
		c0.48121,0,0.87279-0.402,0.87279-0.89599v-0.29295h1.11366c0.19182,0,0.34706-0.15932,0.34706-0.35598v-7.46895
		C16.22019,14.0463,15.54021,13.32762,14.69176,13.29361z M2.56653,11.51289c0-1.26338,1.0012-2.29103,2.23193-2.29103h1.12953
		h0.16416h5.6738c1.23073,0,2.23193,1.02765,2.23193,2.29103v1.81874c-0.71082,0.16302-1.24396,0.8155-1.24396,1.59359v2.78766
		H3.81064v-2.78766c0-0.77831-0.53329-1.43071-1.24411-1.59374V11.51289z M1.03809,22.03788v-7.11267
		c0-0.50767,0.40269-0.92101,0.89727-0.92101H2.2163c0.00106,0,0.00212,0.00015,0.00317,0.00015h0.00159
		c0.49391,0.00098,0.89554,0.41349,0.89554,0.92086v7.11267H1.03809z M5.15511,23.04308c0,0.1012-0.08019,0.18351-0.17874,0.18351
		H2.67771c-0.09856,0-0.1789-0.08231-0.1789-0.18351v-0.29295h2.6563V23.04308z M3.81049,22.03788v-3.6705h8.94327v3.6705H3.81049z
		 M14.06559,23.04308c0,0.1012-0.08019,0.18351-0.1789,0.18351h-2.29866c-0.09855,0-0.17874-0.08231-0.17874-0.18351v-0.29295
		h2.6563V23.04308z M15.5263,22.03788h-2.0785v-7.11267c0-0.50714,0.40163-0.91987,0.89554-0.92086h0.00144h0.00317h0.28108
		c0.49482,0,0.89727,0.41319,0.89727,0.92086V22.03788z"/>
	<path class="st0" d="M21.96443,0.27738C21.92853,0.11511,21.78811,0,21.62606,0h-4.91377
		c-0.16197,0-0.30247,0.11511-0.33829,0.27738l-1.68277,7.61474c-0.02335,0.10558,0.00144,0.21646,0.06719,0.30096
		C14.8244,8.2778,14.92416,8.327,15.02952,8.327h1.87995h0.69404h0.55861v13.52866h-0.3522
		c-0.67356,0-1.22166,0.56261-1.22166,1.25401v0.51484c0,0.19673,0.15547,0.3562,0.34706,0.3562h4.46778
		c0.19159,0,0.34683-0.15947,0.34683-0.3562v-0.51484c0-0.69155-0.54787-1.25401-1.22143-1.25401h-0.35243v-3.92293v-0.38099V8.327
		h3.1326c0.10551,0,0.20535-0.0492,0.2711-0.13393c0.06598-0.0845,0.09077-0.19537,0.06742-0.30096L21.96443,0.27738z
		 M17.04884,7.61474H15.4641l1.52541-6.90249h0.72473L17.04884,7.61474z M20.52851,22.56792
		c0.29083,0,0.52754,0.24299,0.52754,0.54175v0.15879h-3.77389v-0.15879c0-0.29876,0.23686-0.54175,0.52777-0.54175H20.52851z
		 M19.48219,17.55173v0.38099v3.92293h-0.62595V8.327h0.62595V17.55173z M17.74614,7.61474l0.66555-6.90249h1.51506l0.6654,6.90249
		H17.74614z M21.28959,7.61474l-0.66555-6.90249h0.72488l1.52541,6.90249H21.28959z"/>
</g>
</svg>
