<?xml version="1.0" encoding="utf-8"?>
<!-- Generator: Adobe Illustrator 25.1.0, SVG Export Plug-In . SVG Version: 6.00 Build 0)  -->
<svg version="1.1" id="Layer_1" xmlns="http://www.w3.org/2000/svg" xmlns:xlink="http://www.w3.org/1999/xlink" x="0px" y="0px"
	 viewBox="0 0 24 24" style="enable-background:new 0 0 24 24;" xml:space="preserve">
<style type="text/css">
	.st0{fill:#1A3740;}
</style>
<g>
	<path class="st0" d="M23.1,17.5C23,11.6,18.3,6.7,12.4,6.4v-1h0.8c0.3,0,0.5-0.2,0.5-0.5s-0.2-0.6-0.5-0.6h-2.7
		c-0.3,0-0.5,0.2-0.5,0.5s0.3,0.5,0.6,0.5h0.8v1c-6,0.4-10.7,5.3-10.7,11.3c0,0.3,0.2,0.5,0.5,0.5h21.4l0,0
		C22.8,18.1,23.1,17.9,23.1,17.5L23.1,17.5z M1.8,17C2,11.7,6.5,7.4,11.9,7.4S21.8,11.7,22,17H1.8z"/>
	<g>
		<path class="st0" d="M23.5,19.7h-23c-0.3,0-0.5-0.2-0.5-0.5c0-0.3,0.2-0.5,0.5-0.5h22.9c0.3,0,0.5,0.2,0.5,0.5
			C23.9,19.5,23.8,19.7,23.5,19.7z"/>
	</g>
	<g>
		<path class="st0" d="M5.3,11.3L5.3,11.3c-0.2-0.1-0.2-0.4,0-0.5c1.2-1.2,2.9-2.2,4.3-2.5c0.2,0,0.3,0.1,0.4,0.3
			C10,8.8,9.9,8.9,9.7,9c-1.3,0.3-2.9,1.2-4,2.3C5.6,11.4,5.4,11.4,5.3,11.3z"/>
	</g>
</g>
</svg>
