<?xml version="1.0" encoding="utf-8"?>
<!-- Generator: Adobe Illustrator 25.1.0, SVG Export Plug-In . SVG Version: 6.00 Build 0)  -->
<svg version="1.1" id="Layer_1" xmlns="http://www.w3.org/2000/svg" xmlns:xlink="http://www.w3.org/1999/xlink" x="0px" y="0px"
	 viewBox="0 0 24 24" style="enable-background:new 0 0 24 24;" xml:space="preserve">
<style type="text/css">
	.st0{fill:#233941;}
</style>
<g>
	<path class="st0" d="M5.58263,9.0313h12.54087c0.21089,0,0.38003-0.17099,0.38003-0.38003V7.77344
		c0-0.5018-0.4036-0.90503-0.90481-0.92276c-0.19086-2.1159-2.48092-3.7996-5.3599-3.94155V1.90966
		c0-0.63274,0.52441-1.14961,1.16853-1.14961h5.65481c0.20897,0,0.38003-0.17099,0.38003-0.38003S19.27112,0,19.06216,0h-5.65481
		c-1.06404,0-1.92858,0.857-1.92858,1.90966v0.99296C9.0894,3.01501,7.04983,4.16684,6.33323,5.85808
		C6.26606,5.98946,6.05628,6.44235,6.01498,6.86915C5.5595,6.93203,5.20261,7.30422,5.20261,7.77344v0.87784
		C5.20261,8.86031,5.37367,9.0313,5.58263,9.0313z M7.03055,6.16399c0.61944-1.48589,2.60506-2.52334,4.82441-2.52334
		c2.62804,0,4.76766,1.4157,4.98054,3.20359H6.78109c0.03894-0.19434,0.13293-0.452,0.23616-0.65173
		C7.02294,6.18299,7.02678,6.17353,7.03055,6.16399z M5.96266,7.77344c0-0.09126,0.08172-0.16914,0.17675-0.16914h11.42732
		c0.09694,0,0.17675,0.07788,0.17675,0.16914v0.49781H5.96266V7.77344z"/>
	<path class="st0" d="M15.96719,13.63676c-0.01382-0.00015-0.02764-0.00015-0.04153,0
		c-0.15732,0.00621-0.27975,0.13877-0.27347,0.29609c0.00591,0.14956,0.12658,0.26904,0.27613,0.27355l-0.00805-0.00532
		c1.57412-0.00946,2.85785,1.2589,2.86723,2.83302c0.00007,0.01138,0.00007,0.02276,0,0.03414
		c-0.01655,1.45382-1.09286,2.6774-2.53265,2.87935c-0.14993,0.02099-0.25729,0.15547-0.24451,0.30636
		c0.00805,0.10212,0.01204,0.18673,0.00938,0.25929c-0.01559,1.60006-1.30885,2.89331-2.90891,2.90891
		c-0.98668,0.00939-1.907-0.49567-2.4292-1.33286c-0.08372-0.1333-0.25966-0.17342-0.39296-0.0897
		c-0.00717,0.00451-0.01411,0.00931-0.02084,0.01448c-0.3382,0.26077-0.75266,0.40338-1.17969,0.40574
		c-1.05673,0.00887-1.92053-0.8406-1.92939-1.89732c-0.00007-0.01072-0.00007-0.02135,0-0.03207
		c0.00303-0.10101,0.01382-0.20158,0.03222-0.30096c0.02527-0.1554-0.08017-0.30177-0.23557-0.32705
		c-0.01892-0.0031-0.03813-0.00429-0.05734-0.00347L6.84301,19.8629l-0.0484,0.00274
		c-1.57405,0.00946-2.85777-1.25897-2.86723-2.83309c-0.00007-0.01138-0.00007-0.02276,0-0.03414
		c0.01559-1.60006,1.30885-2.89331,2.90891-2.90891c0.15732-0.00621,0.27976-0.13877,0.27347-0.29608
		c-0.00591-0.14956-0.12658-0.26904-0.27613-0.27355c-1.9121,0.01825-3.45763,1.56378-3.47588,3.47588
		c-0.01079,1.82639,1.41547,3.33903,3.23935,3.43553l-0.00133,0.06044c-0.01086,1.37158,1.09212,2.49223,2.46371,2.50309
		c0.01308,0.00015,0.02623,0.00015,0.03938,0c0.44875-0.002,0.88863-0.12451,1.27375-0.35468
		c0.64818,0.86579,1.67018,1.37084,2.75166,1.35969c1.9121-0.01825,3.45763-1.56378,3.47588-3.47581v-0.05106
		c1.60065-0.34892,2.74812-1.75715,2.76644-3.39526C19.37804,15.18879,17.85609,13.64822,15.96719,13.63676z"/>
	<path class="st0" d="M11.16296,10.24867c-0.0003,0.00569-0.00037,0.01131-0.0003,0.017l-0.13441,7.65846
		c-0.00584,0.15732,0.11697,0.28958,0.27429,0.29542c0.00355,0.00015,0.00702,0.00015,0.01057,0.00015
		c0.15732-0.00007,0.28478-0.12754,0.28485-0.28478l0.13434-7.65846c0.00768-0.15724-0.11357-0.29091-0.27081-0.2986
		C11.30431,9.97024,11.17064,10.0915,11.16296,10.24867z"/>
	<path class="st0" d="M9.71157,10.0134c-0.03318,0.03333-0.05764,0.07426-0.07123,0.11926l-1.88099,6.18047
		c-0.04603,0.15067,0.03879,0.31005,0.18946,0.35609c0.15059,0.04603,0.31005-0.03879,0.35601-0.18946l1.88107-6.18047
		c0.03126-0.10123,0.00384-0.21148-0.07123-0.28618C10.00322,9.90189,9.82278,9.90204,9.71157,10.0134z"/>
	<path class="st0" d="M12.93348,9.94054l-0.00133-0.00133c-0.15207,0.04012-0.24281,0.19589-0.20291,0.34796l1.61232,6.18055
		c0.03968,0.15244,0.19552,0.24392,0.34803,0.20416c0.15244-0.03968,0.24392-0.19544,0.20416-0.34796l-1.61225-6.18055
		C13.24131,9.99138,13.08562,9.90056,12.93348,9.94054z"/>
</g>
</svg>
