<?xml version="1.0" encoding="utf-8"?>
<!-- Generator: Adobe Illustrator 25.1.0, SVG Export Plug-In . SVG Version: 6.00 Build 0)  -->
<svg version="1.1" id="Capa_1" xmlns="http://www.w3.org/2000/svg" xmlns:xlink="http://www.w3.org/1999/xlink" x="0px" y="0px"
	 viewBox="0 0 24 24" style="enable-background:new 0 0 24 24;" xml:space="preserve">
<style type="text/css">
	.st0{fill:#1A3740;}
</style>
<g>
	<g>
		<path class="st0" d="M10.3,19.5c0,0.9,0.7,1.6,1.6,1.6c0.9,0,1.6-0.7,1.6-1.6s-0.7-1.6-1.6-1.6C11.1,18,10.3,18.6,10.3,19.5z
			 M12.1,19.5c0,0.1,0,0.1-0.1,0.1s-0.1,0-0.1-0.1s0-0.1,0.1-0.1C12,19.5,12.1,19.5,12.1,19.5z"/>
		<path class="st0" d="M19.1,12.4c0.2,0,0.5-0.1,0.6-0.3c0.3-0.3,0.3-0.9,0-1.2c-2.1-1.9-4.8-3-7.7-3c-2.8,0-5.5,1-7.6,2.9
			C4,11.1,4,11.6,4.3,12.1c0.3,0.4,0.9,0.4,1.2,0.1c1.8-1.7,4.1-2.5,6.5-2.5s4.7,0.9,6.5,2.5C18.6,12.2,18.9,12.4,19.1,12.4z"/>
		<path class="st0" d="M15.8,16.2c0.2,0,0.5-0.1,0.6-0.3c0.3-0.3,0.3-0.9-0.1-1.2c-1.2-1.1-2.8-1.7-4.4-1.7s-3.1,0.6-4.3,1.7
			c-0.4,0.3-0.4,0.9-0.1,1.2c0.3,0.4,0.9,0.4,1.2,0.1c0.9-0.8,2-1.2,3.2-1.2s2.3,0.3,3.3,1.2C15.5,16.1,15.6,16.2,15.8,16.2z"/>
		<path class="st0" d="M23.1,8.9c0.2,0,0.5-0.1,0.6-0.3c0.3-0.4,0.3-1-0.1-1.3c-3.1-3-7.3-4.6-11.6-4.6c-4.4,0-8.5,1.6-11.7,4.5
			c-0.4,0.3-0.4,0.9-0.1,1.2s0.9,0.4,1.2,0.1c2.9-2.6,6.6-4,10.5-4S19.6,6,22.5,8.6C22.7,8.8,22.9,8.9,23.1,8.9z"/>
	</g>
</g>
<ellipse class="st0" cx="11.9" cy="19.5" rx="0.3" ry="0.3"/>
</svg>
