<?xml version="1.0" encoding="utf-8"?>
<!-- Generator: Adobe Illustrator 25.1.0, SVG Export Plug-In . SVG Version: 6.00 Build 0)  -->
<svg version="1.1" id="Layer_1" xmlns="http://www.w3.org/2000/svg" xmlns:xlink="http://www.w3.org/1999/xlink" x="0px" y="0px"
	 viewBox="0 0 24 24" style="enable-background:new 0 0 24 24;" xml:space="preserve">
<style type="text/css">
	.st0{fill:#1A3740;}
</style>
<path class="st0" d="M22.7,0.1h-0.8c-0.7,0-1.2,0.5-1.2,1.2v4.4H3.2V1.3c0-0.7-0.5-1.2-1.2-1.2H1.2C0.5,0.1,0,0.6,0,1.3v22.3
	C0,23.8,0.2,24,0.4,24h2.4c0.2,0,0.4-0.2,0.4-0.4v-2h17.5v2c0,0.2,0.2,0.4,0.4,0.4h2.4c0.2,0,0.4-0.2,0.4-0.4V1.3
	C23.9,0.6,23.4,0.1,22.7,0.1z M15.1,17.5v-2.4h1.6v2.4H15.1z M11.1,17.5v-2.4h1.6v2.4H11.1z M7.2,17.5v-2.4h1.6v2.4H7.2z M3.2,17.5
	v-2.4h1.6v2.4H3.2z M4.8,14.4H3.2V9.7h1.6V14.4z M5.6,9.7h0.8v8H5.6C5.6,17.5,5.6,9.7,5.6,9.7z M8.8,9.7v4.8H7.2V9.7H8.8z M9.6,9.7
	h0.8v8H9.6V9.7z M12.7,9.7v4.8h-1.6V9.7H12.7z M13.5,9.7h0.8v8h-0.8V9.7z M16.7,9.7v4.8h-1.6V9.7H16.7z M17.5,9.7h0.8v8h-0.8V9.7z
	 M20.7,9.7v4.8h-1.6V9.7H20.7z M19.1,15.2h1.6v2.4h-1.6V15.2z M20.7,6.5v2.4H3.2V6.5H20.7z M2.4,23.2H0.8V1.3c0-0.2,0.2-0.4,0.4-0.4
	H2c0.2,0,0.4,0.2,0.4,0.4V23.2L2.4,23.2z M3.2,20.8v-2.4h17.5v2.4H3.2z M23.1,23.2h-1.6V1.3c0-0.2,0.2-0.4,0.4-0.4h0.8
	c0.2,0,0.4,0.2,0.4,0.4L23.1,23.2L23.1,23.2z"/>
</svg>
