<?xml version="1.0" encoding="utf-8"?>
<!-- Generator: Adobe Illustrator 25.1.0, SVG Export Plug-In . SVG Version: 6.00 Build 0)  -->
<svg version="1.1" id="Layer_1" xmlns="http://www.w3.org/2000/svg" xmlns:xlink="http://www.w3.org/1999/xlink" x="0px" y="0px"
	 viewBox="0 0 24 24" style="enable-background:new 0 0 24 24;" xml:space="preserve">
<style type="text/css">
	.st0{fill:#1A3740;}
</style>
<g transform="translate(1 1)">
	<g>
		<g>
			<path class="st0" d="M20.3,19.6h-5c1.3-0.5,2.2-1.2,3-2.1c3-0.5,4.4-3,4.4-5.3c0-1.6-0.9-3-2.1-3.3l0,0c0-0.2-0.1-0.4-0.3-0.6
				C20.1,8.1,19.9,8,19.7,8H0.8C0.6,8,0.4,8.1,0.3,8.3C0.1,8.5,0,8.7,0,8.9c0,4.4,0.8,8.9,5.3,10.7h-5c-0.6,0-1.1,0.5-1.1,1.1
				c0,0.5,0.3,0.9,0.9,1l5.2,0.4c0.1,0,0.3,0.1,0.3,0.2C5.8,22.7,6.2,23,6.7,23h6.8c0.5,0,0.9-0.3,1-0.7c0-0.1,0.2-0.2,0.3-0.2
				l5.6-0.4l0,0c0.6-0.1,0.9-0.5,0.9-1C21.3,20.1,20.9,19.6,20.3,19.6z M20.6,9.8c0.7,0.3,1.2,1.2,1.2,2.4c0,1.6-0.7,3.5-2.8,4.2
				c0-0.1,0.1-0.1,0.1-0.2C20.2,14.2,20.5,11.9,20.6,9.8z M0.8,8.9h18.9c0,5.5-1.2,10.7-9.4,10.7S0.9,14.4,0.8,8.9z M20.4,20.8
				l-5.5,0.4c-0.4,0-0.8,0.3-1,0.7c-0.1,0.1-0.2,0.2-0.3,0.2H6.7c-0.1,0-0.3-0.1-0.3-0.2c-0.2-0.4-0.6-0.6-1-0.7l-5.1-0.4
				C0,20.8,0,20.7,0,20.6s0.1-0.3,0.3-0.3h20.1c0.1,0,0.3,0.1,0.3,0.3C20.6,20.7,20.6,20.8,20.4,20.8z"/>
			<path class="st0" d="M10,2.4C9.4,3,9.1,3.7,9.1,4.3s0.3,1.3,0.9,2c0.1,0.1,0.2,0.1,0.3,0.1s0.2,0,0.3-0.1c0.2-0.2,0.2-0.4,0-0.6
				c-0.5-0.5-0.7-0.9-0.7-1.4s0.3-0.9,0.7-1.3c0.6-0.6,0.9-1.2,0.9-1.9s-0.3-1.3-0.9-2c-0.2-0.2-0.4-0.2-0.6,0
				c-0.2,0.2-0.2,0.4,0,0.6c0.5,0.5,0.7,0.9,0.7,1.4S10.5,2,10,2.4z"/>
			<path class="st0" d="M13.6,4.3c0,0.7,0.3,1.3,0.9,2c0.1,0.1,0.2,0.1,0.3,0.1s0.2,0,0.3-0.1c0.2-0.2,0.2-0.4,0-0.6
				c-0.5-0.5-0.7-0.9-0.7-1.4s0.3-0.9,0.7-1.3c0.7-0.6,1-1.2,1-1.9s-0.3-1.4-0.9-2c-0.2-0.2-0.4-0.2-0.6,0s-0.2,0.4,0,0.6
				c0.5,0.5,0.7,0.9,0.7,1.4S15,2,14.5,2.4C13.9,3.1,13.6,3.7,13.6,4.3z"/>
			<path class="st0" d="M4.9,4.3c0,0.7,0.3,1.3,0.9,2C6,6.4,6.1,6.4,6.2,6.4s0.2,0,0.3-0.1c0.2-0.2,0.2-0.4,0-0.6
				C6,5.2,5.7,4.8,5.7,4.3S6,3.4,6.4,3c0.7-0.6,1-1.2,1-1.9s-0.3-1.4-0.9-2c-0.2-0.2-0.4-0.2-0.6,0c-0.2,0.2-0.2,0.4,0,0.6
				c0.5,0.5,0.7,0.9,0.7,1.4S6.3,2,5.9,2.4C5.3,3.1,4.9,3.7,4.9,4.3z"/>
			<path class="st0" d="M7.9,17.5c-2.9-0.5-4.4-2.1-5-5.4c0-0.2-0.3-0.4-0.5-0.3c-0.2,0-0.4,0.3-0.3,0.5c0.7,3.7,2.4,5.5,5.7,6.1
				c0,0,0,0,0.1,0c0.2,0,0.4-0.1,0.4-0.3C8.3,17.8,8.1,17.5,7.9,17.5z"/>
		</g>
	</g>
</g>
</svg>
