<?xml version="1.0" encoding="utf-8"?>
<!-- Generator: Adobe Illustrator 25.1.0, SVG Export Plug-In . SVG Version: 6.00 Build 0)  -->
<svg version="1.1" id="Layer_1" xmlns="http://www.w3.org/2000/svg" xmlns:xlink="http://www.w3.org/1999/xlink" x="0px" y="0px"
	 viewBox="0 0 24 24" style="enable-background:new 0 0 24 24;" xml:space="preserve">
<style type="text/css">
	.st0{fill:#233941;}
</style>
<g>
	<path class="st0" d="M23.46362,23.35665L0.5229,0.41593c-0.0878-0.0878-0.21957-0.11412-0.33384-0.06641
		C0.07464,0.39694,0,0.50867,0,0.63251v22.97407c0,0.16916,0.13716,0.30632,0.30632,0.30632h2.29741h2.29741h2.29741h2.29741
		h2.29741h2.29741h2.29741h2.29741h4.59481c0.00194-0.0003,0.00404-0.00015,0.00613,0c0.16916,0,0.30632-0.13716,0.30632-0.30632
		C23.59285,23.50338,23.54184,23.41214,23.46362,23.35665z M18.9919,23.30026v-1.22528c0-0.16916-0.13716-0.30632-0.30632-0.30632
		s-0.30632,0.13716-0.30632,0.30632v1.22528h-1.68476v-1.22528c0-0.16916-0.13716-0.30632-0.30632-0.30632
		s-0.30632,0.13716-0.30632,0.30632v1.22528h-1.68476v-1.22528c0-0.16916-0.13716-0.30632-0.30632-0.30632
		s-0.30632,0.13716-0.30632,0.30632v1.22528h-1.68476v-1.22528c0-0.16916-0.13716-0.30632-0.30632-0.30632
		s-0.30632,0.13716-0.30632,0.30632v1.22528H9.80227v-1.22528c0-0.16916-0.13716-0.30632-0.30632-0.30632
		s-0.30632,0.13716-0.30632,0.30632v1.22528H7.50486v-1.22528c0-0.16916-0.13716-0.30632-0.30632-0.30632
		s-0.30632,0.13716-0.30632,0.30632v1.22528H5.20746v-1.22528c0-0.16916-0.13716-0.30632-0.30632-0.30632
		s-0.30632,0.13716-0.30632,0.30632v1.22528H2.91005v-1.22528c0-0.16916-0.13716-0.30632-0.30632-0.30632
		c-0.16916,0-0.30632,0.13716-0.30632,0.30632v1.22528H0.61264V1.37199l21.92827,21.92827H18.9919z"/>
	<path class="st0" d="M3.36953,20.84969h12.25284c0.12564,0,0.23857-0.07673,0.28478-0.19369
		c0.04637-0.11682,0.01645-0.25008-0.07523-0.33609L3.57908,8.83288c-0.08929-0.08346-0.21927-0.10605-0.3313-0.05758
		C3.13575,8.82375,3.06321,8.93429,3.06321,9.05634v11.48704C3.06321,20.71254,3.20037,20.84969,3.36953,20.84969z M3.67585,9.76336
		l11.17189,10.47369H3.67585V9.76336z"/>
</g>
</svg>
