<?xml version="1.0" encoding="utf-8"?>
<!-- Generator: Adobe Illustrator 25.1.0, SVG Export Plug-In . SVG Version: 6.00 Build 0)  -->
<svg version="1.1" id="Layer_1" xmlns="http://www.w3.org/2000/svg" xmlns:xlink="http://www.w3.org/1999/xlink" x="0px" y="0px"
	 viewBox="0 0 24 24" style="enable-background:new 0 0 24 24;" xml:space="preserve">
<style type="text/css">
	.st0{fill:#233941;}
</style>
<g>
	<path class="st0" d="M9.26897,16.45495v-3.06277c0-1.01423-0.82522-1.8393-1.83929-1.8393H2.58481
		c-1.01423,0-1.8393,0.82507-1.8393,1.8393v3.06277c-0.43277,0.14586-0.74549,0.55534-0.74549,1.0366V20.473
		c0,0.48142,0.31272,0.89074,0.74549,1.03676v1.94461c0,0.19267,0.15602,0.34869,0.34869,0.34869h0.74526
		c0.15006,0,0.28332-0.09607,0.33074-0.23842l0.66592-1.99753h4.34214l0.66577,1.99753
		c0.04758,0.1425,0.18076,0.23842,0.3309,0.23842h0.74534c0.19244,0,0.34869-0.15602,0.34869-0.34869v-1.94461
		c0.4327-0.14586,0.74526-0.55534,0.74526-1.03676v-2.98144C10.01423,17.01029,9.70166,16.60081,9.26897,16.45495z
		 M1.44289,13.39219c0-0.6298,0.51212-1.14191,1.14191-1.14191h4.84464c0.6298,0,1.14214,0.51235,1.14214,1.14191v3.06277
		c-0.43277,0.14586-0.74534,0.55534-0.74534,1.0366v0.3968h-0.3031h-0.0937H2.18816v-0.3968
		c0-0.48126-0.31272-0.89074-0.74526-1.0366V13.39219z M7.42944,18.58574h0.0937h0.3031v0.76924
		c0,0.01329-0.01069,0.02398-0.02398,0.02398H2.21214c-0.01321,0-0.02398-0.01069-0.02398-0.02398v-0.76924H7.42944z
		 M1.58814,23.10567H1.44289v-1.53872h0.65813L1.58814,23.10567z M8.57158,23.10567H8.42626l-0.51303-1.53872h0.65836V23.10567z
		 M9.31685,20.473c0,0.21879-0.17793,0.3968-0.39657,0.3968H1.0942c-0.21887,0-0.3968-0.17801-0.3968-0.3968v-2.98144
		c0-0.21864,0.17793-0.39665,0.3968-0.39665c0.21864,0,0.39665,0.17801,0.39665,0.39665v1.86343
		c0,0.01199,0.00053,0.02398,0.00176,0.03582c0.01871,0.38099,0.3338,0.68554,0.71953,0.68554h5.59013
		c0.38558,0,0.70067-0.30455,0.71953-0.68554c0.00115-0.01184,0.00183-0.02383,0.00183-0.03582v-1.86343
		c0-0.21864,0.17801-0.39665,0.39665-0.39665c0.21864,0,0.39657,0.17801,0.39657,0.39665V20.473z"/>
	<path class="st0" d="M13.39224,23.10567h-0.39657v-1.14191c0-0.48141-0.31257-0.89074-0.74534-1.03675V8.15075h4.12335
		c0.13219,0,0.25278-0.07461,0.31181-0.19267l0.43346-0.86699l0.43369,0.86699c0.05903,0.11806,0.17977,0.19267,0.31181,0.19267
		h4.84464c0.13204,0,0.25285-0.07461,0.31188-0.19267l0.74549-1.49083c0.0853-0.17053,0.01756-0.37809-0.15205-0.46561
		l-11.55293-5.9628c-0.10027-0.05178-0.2194-0.05178-0.31983,0L0.18887,6.00163C0.01926,6.089-0.04848,6.29656,0.0369,6.46724
		l0.74526,1.49083C0.84143,8.07614,0.96201,8.15075,1.0942,8.15075h4.84464c0.13204,0,0.25277-0.07461,0.31181-0.19267
		l0.43353-0.86699l0.43346,0.86699C7.17667,8.07614,7.2974,8.15075,7.42944,8.15075h4.1235V20.927
		c-0.43277,0.14578-0.74526,0.55534-0.74526,1.03675v1.14191h-0.3968c-0.19252,0-0.34869,0.15617-0.34869,0.34869
		c0,0.19252,0.15617,0.34869,0.34869,0.34869h2.98136c0.19267,0,0.34869-0.15617,0.34869-0.34869
		C13.74093,23.26184,13.58492,23.10567,13.39224,23.10567z M22.49372,7.45337h-4.41385l-0.39665-0.79322h5.20715L22.49372,7.45337z
		 M5.72325,7.45337h-4.4137L0.91298,6.66014h5.20715L5.72325,7.45337z M1.78448,5.96276L11.90164,0.7411l10.117,5.22166H14.5104
		h-0.41078H1.78448z M7.64503,7.45337L7.24838,6.66014h6.85125h0.41078h2.04449l-0.39665,0.79322H7.64503z M12.29829,23.10567
		h-0.79322v-1.14191c0-0.21887,0.17793-0.39665,0.39657-0.39665c0.21864,0,0.39665,0.17801,0.39665,0.39665V23.10567z"/>
	<path class="st0" d="M23.12512,16.45495v-3.06277c0-1.01423-0.82514-1.8393-1.83929-1.8393h-4.84479
		c-1.0143,0-1.8393,0.82507-1.8393,1.8393v3.06277c-0.43277,0.14586-0.74549,0.55534-0.74549,1.0366V20.473
		c0,0.48142,0.31272,0.89074,0.74549,1.03676v1.94461c0,0.19267,0.15602,0.34869,0.34869,0.34869h0.74526
		c0.15006,0,0.28332-0.09607,0.33075-0.23842l0.66592-1.99753h4.34214l0.66577,1.99753
		c0.04758,0.1425,0.18069,0.23842,0.3309,0.23842h0.74534c0.19244,0,0.34861-0.15602,0.34861-0.34869v-1.94461
		c0.43277-0.14586,0.74534-0.55534,0.74534-1.03676v-2.98144C23.87046,17.01029,23.55789,16.60081,23.12512,16.45495z
		 M15.29912,13.39219c0-0.6298,0.51212-1.14191,1.14191-1.14191h4.84464c0.6298,0,1.14214,0.51235,1.14214,1.14191v3.06277
		c-0.43277,0.14586-0.74534,0.55534-0.74534,1.0366v0.3968h-0.3031h-0.0937h-5.24129v-0.3968
		c0-0.48126-0.31272-0.89074-0.74527-1.0366V13.39219z M21.28567,18.58574h0.0937h0.3031v0.76924
		c0,0.01329-0.01069,0.02398-0.02398,0.02398h-5.59013c-0.01329,0-0.02398-0.01069-0.02398-0.02398v-0.76924H21.28567z
		 M15.44437,23.10567h-0.14525v-1.53872h0.65813L15.44437,23.10567z M22.42781,23.10567h-0.14532l-0.51303-1.53872h0.65836V23.10567
		z M23.17308,20.473c0,0.21879-0.17793,0.3968-0.39657,0.3968h-7.82607c-0.21887,0-0.3968-0.17801-0.3968-0.3968v-2.98144
		c0-0.21864,0.17793-0.39665,0.3968-0.39665c0.21864,0,0.39657,0.17801,0.39657,0.39665v1.86343
		c0,0.01199,0.00061,0.02398,0.00183,0.03582c0.01871,0.38099,0.3338,0.68554,0.71953,0.68554h5.59013
		c0.38558,0,0.70067-0.30455,0.71953-0.68554c0.00107-0.01184,0.00183-0.02383,0.00183-0.03582v-1.86343
		c0-0.21864,0.17794-0.39665,0.39665-0.39665c0.21864,0,0.39657,0.17801,0.39657,0.39665V20.473z"/>
</g>
</svg>
